<?xml version="1.0" encoding="utf-8"?>
<!-- Generator: Adobe Illustrator 23.0.6, SVG Export Plug-In . SVG Version: 6.00 Build 0)  -->
<svg version="1.1" id="Capa_1" xmlns="http://www.w3.org/2000/svg" xmlns:xlink="http://www.w3.org/1999/xlink" x="0px" y="0px"
	 viewBox="0 0 449.48 400.76" style="enable-background:new 0 0 449.48 400.76;" xml:space="preserve">
<style type="text/css">
	.st0{fill:#424242;}
</style>
<g>
	<path class="st0" d="M287.09,299.69c-33.33,0-66.65,0.16-99.98-0.05c-29.76-0.19-54.45-20.07-60.7-48.95
		c-7.27-33.53,13.35-66.08,43.99-73c3.85-0.87,4.58-2.82,4.71-6.14c1-24.89,12.4-44.13,32.31-58.58
		c29.87-21.68,75.67-15.69,98.79,13.07c3.17,3.95,5.47,4.88,10.56,2.87c32.67-12.94,71.47,7.4,79.78,41.51
		c0.91,3.74,1.83,6.31,6.41,7.41c25.6,6.19,43.31,26.72,46.17,52.79c2.85,25.92-10.84,50.98-34.08,62.71
		c-9.31,4.7-19.17,6.38-29.47,6.37C352.74,299.68,319.91,299.7,287.09,299.69z"/>
	<path class="st0" d="M60.84,186.53c-4.31-2.13-8.31-4.12-12.31-6.09c-13.59-6.68-27.16-13.42-40.79-20.01
		c-4.57-2.21-7.72-5.34-7.73-10.63c-0.01-5.13,3.14-8.03,7.53-10.18c16.15-7.89,32.23-15.92,48.33-23.92
		c1.6-0.8,3.14-1.72,4.97-2.74C55.2,96.13,49.68,79.59,44.17,63.04c-0.89-2.68-1.87-5.35-2.6-8.07
		c-2.36-8.89,4.62-15.88,13.44-13.08c17.75,5.64,35.39,11.66,53.08,17.51c1.56,0.51,3.14,0.95,5.03,1.52
		c2.45-4.92,4.84-9.65,7.18-14.41c6.18-12.54,12.39-25.06,18.5-37.64c2.27-4.68,4.78-8.84,10.84-8.86
		c6.02-0.02,8.65,3.96,10.95,8.69c7.56,15.57,15.25,31.07,22.91,46.6c0.88,1.78,1.84,3.51,2.98,5.68
		c10.52-3.47,20.91-6.87,31.28-10.32c8.21-2.72,16.44-5.4,24.6-8.27c4.73-1.66,9.12-1.97,12.97,1.87c4.02,4,3.61,8.59,1.8,13.43
		c-1.98,5.3-2.39,12.37-6.13,15.48c-3.59,2.99-10.58,1.81-16.06,2.6c-12.7,1.83-24.44,6.4-35.35,13.04
		c-2.59,1.57-4.24,1.92-6.96-0.04C148.4,56.83,85.89,81.74,75.9,135.49c-4.67,25.13,1.75,47.54,19.36,66.43
		c0.11,0.12,0.19,0.31,0.33,0.37c9.13,4.16,7.77,11.07,5.81,18.97c-1.66,6.67-1.63,13.76-2.45,21.65c-0.17,0.07-1.47,0.7-2.83,1.16
		c-13.07,4.43-26.18,8.76-39.23,13.29c-4.61,1.6-8.9,1.7-12.54-1.82c-3.78-3.66-3.92-8.05-2.26-12.9
		c5.75-16.85,11.32-33.76,16.95-50.65C59.62,190.28,60.17,188.57,60.84,186.53z"/>
	<path class="st0" d="M175.67,108c-12.46,13.81-20.64,29.38-24.21,47.29c-0.2,1.01-0.87,2.35-1.7,2.76
		c-13.35,6.61-24.65,15.68-33.26,27.86c-18.34-13.56-21.92-44.15-7.88-63.98C124.41,99.64,153.62,93.36,175.67,108z"/>
	<path class="st0" d="M150.31,400.76c-9.77-0.93-16.24-10.03-11.93-17.9c9.74-17.78,20-35.29,30.34-52.73
		c3.26-5.49,10.06-6.49,15.87-3.18c5.74,3.27,8.01,8.54,4.89,14.33c-9.55,17.7-19.33,35.28-29.58,52.58
		C158.06,396.96,153.58,398.49,150.31,400.76z"/>
	<path class="st0" d="M265.59,338.17c-0.45,1.14-1.14,3.74-2.4,6.01c-8.88,15.99-17.8,31.95-26.88,47.83
		c-4.62,8.09-12.48,9.96-19.3,4.95c-5.6-4.12-6.8-8.27-3.4-14.75c4.01-7.65,8.49-15.06,12.8-22.54
		c5.56-9.65,11.06-19.34,16.81-28.88c3.11-5.17,8.2-6.77,13.8-4.93C262.59,327.68,265.82,331.74,265.59,338.17z"/>
	<path class="st0" d="M340.59,338.18c-0.45,1.14-1.14,3.73-2.4,6.01c-8.88,15.99-17.8,31.95-26.88,47.83
		c-4.62,8.08-12.48,9.95-19.3,4.93c-5.6-4.12-6.79-8.27-3.39-14.75c4.01-7.65,8.49-15.06,12.81-22.54
		c5.57-9.65,11.06-19.34,16.81-28.88c3.11-5.17,8.2-6.76,13.8-4.92C337.6,327.68,340.82,331.74,340.59,338.18z"/>
	<path class="st0" d="M416.19,336.41c-0.98,2.6-1.6,5.22-2.86,7.49c-8.95,16.14-17.95,32.25-27.12,48.27
		c-4.6,8.03-12.53,9.79-19.36,4.67c-5.24-3.93-6.51-7.97-3.58-13.91c2.78-5.66,6.11-11.05,9.26-16.52
		c6.8-11.81,13.48-23.7,20.53-35.37c4.76-7.88,15.72-7.9,20.87-0.24C415,332.37,415.4,334.39,416.19,336.41z"/>
</g>
</svg>
